PathFileType	4	(X/Y/Z)	 s01c0302.trc
DataRate	CameraRate	NumFrames	NumMarkers	Units	OrigDataRate	OrigDataStartFrame	OrigNumFrames
200	200	7	48	mm	200	1751	2000
Frame#	Time	racr			lacr			c7			jug			rlel			rdr			llel			ldr			s2			lic			ric			lasi			rasi			rpsi			lpsi			rgt			lgt			rth1			rth2			rth3			rth4			rlfc			rsh1			rsh2			rsh3			rsh4			rlmal			rmmal			rcal			rtoe			rmt5			lth1			lth2			lth4			lth3			llfc			lsh1			lsh2			lsh3			lsh4			llmal			lmmal			lcal			ltoe			lmt5			SBIKE			LBIKE			RBIKE			
		X1	Y1	Z1	X2	Y2	Z2	X3	Y3	Z3	X4	Y4	Z4	X5	Y5	Z5	X6	Y6	Z6	X7	Y7	Z7	X8	Y8	Z8	X9	Y9	Z9	X10	Y10	Z10	X11	Y11	Z11	X12	Y12	Z12	X13	Y13	Z13	X14	Y14	Z14	X15	Y15	Z15	X16	Y16	Z16	X17	Y17	Z17	X18	Y18	Z18	X19	Y19	Z19	X20	Y20	Z20	X21	Y21	Z21	X22	Y22	Z22	X23	Y23	Z23	X24	Y24	Z24	X25	Y25	Z25	X26	Y26	Z26	X27	Y27	Z27	X28	Y28	Z28	X29	Y29	Z29	X30	Y30	Z30	X31	Y31	Z31	X32	Y32	Z32	X33	Y33	Z33	X34	Y34	Z34	X35	Y35	Z35	X36	Y36	Z36	X37	Y37	Z37	X38	Y38	Z38	X39	Y39	Z39	X40	Y40	Z40	X41	Y41	Z41	X42	Y42	Z42	X43	Y43	Z43	X44	Y44	Z44	X45	Y45	Z45	X46	Y46	Z46	X47	Y47	Z47	X48	Y48	Z48	
1751	8.7550	559.179137	1352.492936	-126.614942	595.093121	1344.070324	-433.639634	527.482739	1416.090170	-279.955098	527.960366	1255.493629	-279.880661	598.035098	1079.846068	-23.182727	728.343869	855.279126	-58.195144	597.805000	1066.665771	-540.676857	717.270799	865.123230	-440.286958	NaN	NaN	NaN	169.081559	1163.545999	-448.704235	152.276245	1212.537048	-136.147202	149.271809	1107.945700	-425.260738	160.306997	1160.380382	-156.496157	25.638159	1252.801523	-247.980986	25.401525	1237.127944	-351.482194	73.799038	1135.917468	-80.090111	58.023952	1039.555696	-462.718935	173.251290	1062.340342	-46.834775	250.072588	1030.716606	-42.759677	330.818363	989.346492	-43.820809	273.164345	1076.285624	-67.264353	399.837392	900.528245	-55.454421	307.291859	823.419560	-38.383795	250.531843	761.273870	-50.313293	186.153242	703.118803	-70.744524	289.689908	728.570517	-82.481099	98.225975	614.917296	-99.304232	145.170731	615.479357	-174.269401	43.792044	602.082769	-155.042020	289.666069	488.186654	-133.784259	179.881927	498.172589	-67.098462	78.269238	916.795825	-462.842304	125.214308	841.049581	-460.115112	172.507292	869.312910	-457.827203	163.635435	767.545662	-437.985048	209.058410	656.573449	-418.344550	167.685153	552.870152	-448.655102	169.694765	466.079149	-441.126041	169.018992	381.296509	-425.622922	225.309324	470.446214	-414.128525	166.756769	253.571909	-403.799212	NaN	NaN	NaN	123.421433	224.238310	-362.151381	397.583624	181.685074	-373.949823	290.566278	168.629771	-438.602095	-224.398418	892.821823	-252.744675	-12.553173	84.590814	-456.088346	-21.606003	80.948557	-55.966189	
1752	8.7600	558.289492	1352.203374	-126.780985	593.928096	1343.717984	-433.833040	526.320707	1415.789191	-280.090519	527.061227	1255.201232	-279.924608	597.672553	1079.701594	-23.203878	728.272724	855.282011	-58.134335	596.986053	1066.375678	-541.012150	717.056484	865.201521	-440.388357	NaN	NaN	NaN	167.839633	1163.319069	-448.695853	151.302922	1212.285558	-136.052884	148.028557	1107.653933	-425.192531	159.269175	1160.060551	-156.386528	24.555298	1252.659445	-247.800915	24.340622	1236.963230	-351.373199	72.869843	1135.745038	-79.990897	56.735987	1039.371672	-462.565144	172.179777	1062.067608	-46.911723	249.003311	1030.371987	-42.803476	329.652948	988.827659	-43.917597	272.151874	1075.850841	-67.282970	398.655993	899.986036	-55.571266	305.962593	822.994804	-38.522655	249.213354	760.812974	-50.378513	184.814422	702.643873	-70.814561	288.316882	728.079783	-82.556172	96.862363	614.391101	-99.373724	143.953489	614.985837	-174.777847	42.473270	601.473973	-155.104120	288.610359	487.993715	-133.749979	178.789381	497.877364	-67.073386	77.131043	916.616060	-462.695148	124.151426	840.938902	-460.032978	171.415571	869.258261	-457.919615	162.751639	767.460610	-437.968926	208.472333	656.707617	-418.303662	167.385627	552.843070	-448.607638	169.627882	466.053588	-441.063650	169.225570	381.249232	-425.583678	225.253442	470.581226	-414.104419	167.293116	253.487220	-403.829993	NaN	NaN	NaN	124.105130	224.017940	-362.130034	398.388661	182.373419	-373.930295	291.429267	168.937739	-438.582224	-224.406312	892.819942	-252.759345	-12.551889	84.587006	-456.087035	-21.589729	80.933097	-55.963193	
1753	8.7650	557.367902	1351.981770	-126.929385	592.752723	1343.395640	-433.999042	525.166366	1415.479019	-280.235018	526.012312	1254.832974	-280.150163	597.308965	1079.551276	-23.198243	728.204699	855.297510	-58.096395	596.168524	1066.023501	-541.398513	716.880306	865.260173	-440.499427	NaN	NaN	NaN	166.588519	1163.025546	-448.628368	150.249288	1212.017872	-135.993942	146.779559	1107.388568	-425.120440	158.135615	1159.736366	-156.366058	23.432042	1252.530783	-247.647840	23.150085	1236.774267	-351.195801	71.846554	1135.591798	-79.859741	55.443573	1039.219076	-462.451278	171.140282	1061.796598	-46.925925	247.956691	1029.978731	-42.795155	328.568862	988.315273	-43.936236	271.136896	1075.462958	-67.262236	397.578470	899.411456	-55.748086	304.621481	822.571603	-38.627857	247.928125	760.405808	-50.421181	183.556925	702.208226	-70.804341	287.015935	727.624740	-82.586604	95.502863	613.940383	-99.296933	142.953088	614.633555	-174.559683	41.915067	600.094315	-155.821705	287.484178	487.814705	-133.786010	177.761634	497.547674	-67.074172	76.024101	916.425677	-462.569963	123.146934	840.837959	-459.962160	170.482348	869.155085	-458.036133	161.881400	767.371586	-437.931430	207.880049	656.757494	-418.226278	167.064588	552.782164	-448.508553	169.556115	466.019554	-440.992793	169.428656	381.191156	-425.516296	225.188325	470.682014	-414.059258	167.900420	253.415359	-403.784298	NaN	NaN	NaN	124.773359	223.782052	-362.101470	399.143635	183.111569	-373.923898	292.270615	169.248253	-438.558542	-224.408616	892.812987	-252.746350	-12.553713	84.589118	-456.085748	-21.612162	80.946621	-55.970155	
1754	8.7700	556.481263	1351.668062	-127.057226	591.594089	1343.065406	-434.226048	524.020990	1415.174040	-280.379248	525.060365	1254.445955	-280.143471	596.887177	1079.376265	-23.206504	728.160776	855.287809	-58.038107	595.366838	1065.676274	-541.786102	716.681112	865.293212	-440.579461	NaN	NaN	NaN	165.361701	1162.734561	-448.638587	149.231925	1211.771507	-135.941089	145.562265	1107.128357	-425.012602	157.069305	1159.427647	-156.238026	22.279993	1252.409666	-247.496959	21.931822	1236.541611	-350.926690	70.846477	1135.464331	-79.702933	54.201954	1039.023506	-462.336955	170.090677	1061.489616	-46.886889	246.843910	1029.615611	-42.734329	327.453314	987.891683	-43.943136	270.101005	1075.079543	-67.227365	396.122650	898.997765	-55.768178	303.378810	822.159562	-38.627436	246.631762	759.997209	-50.464104	182.203229	701.738468	-70.835746	285.604689	727.051582	-82.813387	94.359156	613.425164	-99.416592	140.546120	613.881196	-175.015597	39.961186	600.268396	-155.060942	286.482418	487.611510	-133.767218	176.714776	497.168924	-67.123274	74.935839	916.202740	-462.460641	122.115207	840.684128	-459.899009	169.420311	869.098549	-458.043658	161.020171	767.280942	-437.876507	207.319250	656.817041	-418.155580	166.783409	552.746246	-448.442804	169.477613	465.978622	-440.924900	169.590954	381.158204	-425.474959	225.129985	470.771218	-414.005878	168.451526	253.298796	-403.700995	NaN	NaN	NaN	125.420594	223.541622	-362.069422	399.919010	183.723915	-373.928827	293.070171	169.551327	-438.541482	-224.390145	892.811590	-252.740606	-12.551238	84.586283	-456.084421	-21.596598	80.943728	-55.974722	
1755	8.7750	555.551494	1351.331516	-127.201244	590.339567	1342.724007	-434.462422	522.885334	1414.853200	-280.529353	524.032274	1254.112506	-280.322294	596.503507	1079.213659	-23.185268	728.098338	855.271770	-58.004086	594.532571	1065.244591	-542.230828	716.519256	865.332281	-440.663610	NaN	NaN	NaN	164.138591	1162.440359	-448.592831	148.149766	1211.479753	-135.866586	144.348529	1106.880953	-424.917025	155.985947	1159.158305	-156.170428	21.137523	1252.311671	-247.319976	20.859711	1236.349664	-350.850444	69.770465	1135.287496	-79.598610	53.019381	1038.814159	-462.191052	168.985352	1061.188679	-46.793324	245.754849	1029.204138	-42.613129	326.191101	987.375798	-43.876332	269.055486	1074.664304	-67.179313	394.966864	898.518429	-55.811466	302.009684	821.750082	-38.649497	245.344055	759.541385	-50.501075	180.969130	701.268855	-70.859153	284.394996	726.623382	-82.789457	93.125049	612.912607	-99.455841	139.109366	613.405898	-175.099035	38.770731	599.916805	-154.495845	285.451289	487.507398	-133.755850	175.635811	496.771900	-67.176894	73.903589	916.037304	-462.360115	121.167923	840.545375	-459.837987	168.417956	868.988354	-457.983832	160.174882	767.189801	-437.803196	206.720424	656.852299	-418.054463	166.465209	552.691482	-448.343200	169.389724	465.937525	-440.865083	169.744406	381.114984	-425.431211	225.022359	470.849602	-413.961234	168.954493	253.200815	-403.666145	NaN	NaN	NaN	126.034036	223.316084	-362.046484	400.675332	184.338439	-373.869110	293.845186	169.850223	-438.542517	-224.387767	892.819357	-252.745655	-12.550282	84.590114	-456.082253	-21.594279	80.927530	-55.973012	
1756	8.7800	554.620735	1351.062928	-127.385796	589.146586	1342.394775	-434.733729	521.759945	1414.521424	-280.689253	523.035245	1253.805147	-280.249848	596.152566	1079.072022	-23.213025	728.042790	855.274314	-57.947476	593.714416	1064.821304	-542.618142	716.399025	865.332712	-440.738556	NaN	NaN	NaN	162.919973	1162.192099	-448.523606	147.093665	1211.231069	-135.767013	143.160885	1106.630471	-424.832530	154.853426	1158.799968	-156.035960	20.004961	1252.170432	-247.173330	19.831517	1236.171901	-350.874791	68.740817	1135.071849	-79.468791	51.843202	1038.628720	-462.068148	167.945916	1060.865356	-46.672511	244.639048	1028.851002	-42.529769	325.082131	986.998714	-43.873157	267.980774	1074.282820	-67.070014	393.684171	898.029133	-55.815481	300.746846	821.383855	-38.674530	244.069179	759.123939	-50.491273	179.773237	700.831439	-70.851496	283.112891	726.178304	-82.779816	91.823869	612.490735	-99.296350	137.851635	613.005402	-175.096096	38.217619	598.276145	-155.595330	284.502477	487.368403	-133.764091	174.690069	496.420656	-67.249904	72.871248	915.738392	-462.272442	120.251128	840.421276	-459.720370	167.379415	868.929649	-457.966286	159.347514	767.099638	-437.715912	206.160283	656.858638	-417.966825	166.162884	552.649109	-448.272411	169.283970	465.897631	-440.815089	169.867646	381.061002	-425.368877	225.134978	471.014697	-414.078979	169.468803	253.178077	-403.653676	NaN	NaN	NaN	126.617332	223.082932	-362.024448	401.362278	184.944504	-373.880811	294.568111	170.140720	-438.540872	-224.395813	892.809865	-252.736969	-12.548318	84.590212	-456.084649	-21.606726	80.934259	-55.963588	
1757	8.7850	553.389013	1350.599203	-127.869257	587.927562	1342.048133	-434.981745	520.676843	1414.330698	-280.857722	521.994535	1253.526935	-280.467734	595.813374	1078.942763	-23.282253	728.008100	855.271960	-57.899913	592.885829	1064.307725	-543.020011	716.268598	865.353405	-440.762364	NaN	NaN	NaN	161.717994	1161.914645	-448.452054	145.996484	1210.958994	-135.678382	141.990143	1106.376178	-424.739683	153.714615	1158.553698	-155.939789	18.839035	1252.021433	-247.003048	18.605912	1235.933520	-350.668274	67.609459	1134.864007	-79.289841	50.735872	1038.419364	-461.954881	166.846676	1060.601443	-46.456183	243.505711	1028.492356	-42.383144	323.944363	986.549185	-43.775841	266.853070	1073.872145	-66.969959	392.488565	897.652745	-55.801487	299.546134	821.005411	-38.636578	242.909091	758.668736	-50.486697	178.519257	700.409071	-70.929408	281.971172	725.797549	-82.752906	90.695989	611.928138	-99.385774	136.510339	612.527543	-174.987775	37.147500	597.519849	-155.934704	283.597310	487.266666	-133.746465	173.549585	495.992122	-67.557345	71.850943	915.539759	-462.142844	119.287847	840.262390	-459.588811	166.423646	868.874043	-457.913044	158.534725	767.010649	-437.619124	205.581993	656.884119	-417.869766	165.823128	552.580562	-448.192205	169.165336	465.860534	-440.774883	169.958741	381.011674	-425.339684	224.999826	471.088598	-414.022652	169.922720	253.080680	-403.633853	NaN	NaN	NaN	127.161513	222.857207	-362.016581	402.007391	185.498490	-373.882349	295.265042	170.414462	-438.539173	-224.387715	892.810294	-252.722623	-12.551765	84.590363	-456.083918	-21.599032	80.927962	-55.965044	
